HIERARCHY
ROOT hips
{
	OFFSET -0.003675 0.299928 -0.021708
	CHANNELS 6 Xposition Yposition Zposition Xrotation Yrotation Zrotation
	JOINT LowerBack
	{
		OFFSET 0.000919 0.177588 0.009275
		CHANNELS 3 Xrotation Yrotation Zrotation
		JOINT spine
		{
			OFFSET 0.000919 0.177588 0.009275
			CHANNELS 3 Xrotation Yrotation Zrotation
			JOINT chest
			{
				OFFSET 0.000456 0.100015 0.004638
				CHANNELS 3 Xrotation Yrotation Zrotation
				JOINT neck
				{
					OFFSET 0.000456 0.100015 0.004638
					CHANNELS 3 Xrotation Yrotation Zrotation
					JOINT head
					{
						OFFSET 0.000924 0.155147 0.009274
						CHANNELS 6 Xposition Yposition Zposition Xrotation Yrotation Zrotation
						End Site
						{
							OFFSET 0.000000 0.153400 0.000000
						}
					}
				}
				JOINT shoulder.L
				{
					OFFSET 0.019937 0.078966 0.057518
					CHANNELS 6 Xposition Yposition Zposition Yrotation Xrotation Zrotation
					JOINT upper_arm.L
					{
						OFFSET 0.177024 -0.020465 -0.095062
						CHANNELS 6 Xposition Yposition Zposition Xrotation Yrotation Zrotation
						JOINT forearm.L
						{
							OFFSET 0.247100 -0.135500 -0.061800
							CHANNELS 3 Xrotation Yrotation Zrotation
							JOINT hand.L
							{
								OFFSET 0.217000 -0.143000 0.039300
								CHANNELS 3 Xrotation Yrotation Zrotation
								JOINT palm.01.L
								{
									OFFSET 0.021770 -0.038291 0.012954
									CHANNELS 6 Xposition Yposition Zposition Yrotation Xrotation Zrotation
									JOINT f_index.01.L
									{
										OFFSET 0.053215 -0.044137 0.008236
										CHANNELS 3 Xrotation Yrotation Zrotation
										JOINT f_index.02.L
										{
											OFFSET 0.036108 -0.024723 -0.010656
											CHANNELS 3 Xrotation Yrotation Zrotation
											JOINT f_index.03.L
											{
												OFFSET 0.021342 -0.014948 -0.010846
												CHANNELS 3 Xrotation Yrotation Zrotation
												End Site
												{
													OFFSET 0.015600 -0.009860 -0.013421
												}
											}
										}
									}
									JOINT thumb.01.L
									{
										OFFSET -0.009090 -0.002348 -0.024223
										CHANNELS 6 Xposition Yposition Zposition Xrotation Yrotation Zrotation
										JOINT thumb.02.L
										{
											OFFSET 0.019713 -0.035076 -0.011120
											CHANNELS 3 Xrotation Yrotation Zrotation
											JOINT thumb.03.L
											{
												OFFSET 0.024877 -0.021748 -0.005176
												CHANNELS 3 Xrotation Yrotation Zrotation
												End Site
												{
													OFFSET 0.016125 -0.013029 -0.001569
												}
											}
										}
									}
								}
								JOINT palm.02.L
								{
									OFFSET 0.032823 -0.025104 0.012281
									CHANNELS 6 Xposition Yposition Zposition Yrotation Xrotation Zrotation
									JOINT f_middle.01.L
									{
										OFFSET 0.055723 -0.038469 0.008037
										CHANNELS 3 Xrotation Yrotation Zrotation
										JOINT f_middle.02.L
										{
											OFFSET 0.038167 -0.027473 -0.015582
											CHANNELS 3 Xrotation Yrotation Zrotation
											JOINT f_middle.03.L
											{
												OFFSET 0.021707 -0.016587 -0.017037
												CHANNELS 3 Xrotation Yrotation Zrotation
												End Site
												{
													OFFSET 0.014112 -0.010584 -0.014294
												}
											}
										}
									}
								}
								JOINT palm.03.L
								{
									OFFSET 0.039230 -0.011402 0.008390
									CHANNELS 6 Xposition Yposition Zposition Yrotation Xrotation Zrotation
									JOINT f_ring.01.L
									{
										OFFSET 0.061796 -0.031470 0.007910
										CHANNELS 3 Xrotation Yrotation Zrotation
										JOINT f_ring.02.L
										{
											OFFSET 0.033092 -0.023401 -0.019127
											CHANNELS 3 Xrotation Yrotation Zrotation
											JOINT f_ring.03.L
											{
												OFFSET 0.021392 -0.015362 -0.017824
												CHANNELS 3 Xrotation Yrotation Zrotation
												End Site
												{
													OFFSET 0.008670 -0.007297 -0.014686
												}
											}
										}
									}
								}
								JOINT palm.04.L
								{
									OFFSET 0.043417 0.002450 0.002889
									CHANNELS 6 Xposition Yposition Zposition Yrotation Xrotation Zrotation
									JOINT f_pinky.01.L
									{
										OFFSET 0.069986 -0.026156 0.003627
										CHANNELS 3 Xrotation Yrotation Zrotation
										JOINT f_pinky.02.L
										{
											OFFSET 0.018520 -0.012813 -0.016429
											CHANNELS 3 Xrotation Yrotation Zrotation
											JOINT f_pinky.03.L
											{
												OFFSET 0.013822 -0.009796 -0.014947
												CHANNELS 3 Xrotation Yrotation Zrotation
												End Site
												{
													OFFSET 0.007238 -0.006103 -0.011657
												}
											}
										}
									}
								}
							}
						}
					}
				}
				JOINT shoulder.R
				{
					OFFSET -0.016662 0.078957 0.057696
					CHANNELS 6 Xposition Yposition Zposition Yrotation Xrotation Zrotation
					JOINT upper_arm.R
					{
						OFFSET -0.176972 -0.020537 -0.095144
						CHANNELS 6 Xposition Yposition Zposition Xrotation Yrotation Zrotation
						JOINT forearm.R
						{
							OFFSET -0.247100 -0.135500 -0.061800
							CHANNELS 3 Xrotation Yrotation Zrotation
							JOINT hand.R
							{
								OFFSET -0.217000 -0.143000 0.039300
								CHANNELS 3 Xrotation Yrotation Zrotation
								JOINT palm.01.R
								{
									OFFSET -0.021773 -0.038278 0.012988
									CHANNELS 6 Xposition Yposition Zposition Yrotation Xrotation Zrotation
									JOINT f_index.01.R
									{
										OFFSET -0.053212 -0.044139 0.008249
										CHANNELS 3 Xrotation Yrotation Zrotation
										JOINT f_index.02.R
										{
											OFFSET -0.036049 -0.024835 -0.010634
											CHANNELS 3 Xrotation Yrotation Zrotation
											JOINT f_index.03.R
											{
												OFFSET -0.021371 -0.014881 -0.010866
												CHANNELS 3 Xrotation Yrotation Zrotation
												End Site
												{
													OFFSET -0.015584 -0.009883 -0.013422
												}
											}
										}
									}
									JOINT thumb.01.R
									{
										OFFSET 0.009113 -0.002381 -0.024211
										CHANNELS 6 Xposition Yposition Zposition Xrotation Yrotation Zrotation
										JOINT thumb.02.R
										{
											OFFSET -0.019694 -0.035097 -0.011088
											CHANNELS 3 Xrotation Yrotation Zrotation
											JOINT thumb.03.R
											{
												OFFSET -0.024867 -0.021762 -0.005168
												CHANNELS 3 Xrotation Yrotation Zrotation
												End Site
												{
													OFFSET -0.016120 -0.013036 -0.001565
												}
											}
										}
									}
								}
								JOINT palm.02.R
								{
									OFFSET -0.032828 -0.025095 0.012286
									CHANNELS 6 Xposition Yposition Zposition Yrotation Xrotation Zrotation
									JOINT f_middle.01.R
									{
										OFFSET -0.055721 -0.038472 0.008040
										CHANNELS 3 Xrotation Yrotation Zrotation
										JOINT f_middle.02.R
										{
											OFFSET -0.038101 -0.027593 -0.015557
											CHANNELS 3 Xrotation Yrotation Zrotation
											JOINT f_middle.03.R
											{
												OFFSET -0.021730 -0.016530 -0.017054
												CHANNELS 3 Xrotation Yrotation Zrotation
												End Site
												{
													OFFSET -0.014096 -0.010608 -0.014293
												}
											}
										}
									}
								}
								JOINT palm.03.R
								{
									OFFSET -0.039192 -0.011488 0.008390
									CHANNELS 6 Xposition Yposition Zposition Yrotation Xrotation Zrotation
									JOINT f_ring.01.R
									{
										OFFSET -0.061839 -0.031387 0.007876
										CHANNELS 3 Xrotation Yrotation Zrotation
										JOINT f_ring.02.R
										{
											OFFSET -0.033068 -0.023437 -0.019125
											CHANNELS 3 Xrotation Yrotation Zrotation
											JOINT f_ring.03.R
											{
												OFFSET -0.021371 -0.015393 -0.017822
												CHANNELS 3 Xrotation Yrotation Zrotation
												End Site
												{
													OFFSET -0.008654 -0.007321 -0.014684
												}
											}
										}
									}
								}
								JOINT palm.04.R
								{
									OFFSET -0.043421 0.002443 0.002845
									CHANNELS 6 Xposition Yposition Zposition Yrotation Xrotation Zrotation
									JOINT f_pinky.01.R
									{
										OFFSET -0.069983 -0.026169 0.003599
										CHANNELS 3 Xrotation Yrotation Zrotation
										JOINT f_pinky.02.R
										{
											OFFSET -0.018501 -0.012842 -0.016428
											CHANNELS 3 Xrotation Yrotation Zrotation
											JOINT f_pinky.03.R
											{
												OFFSET -0.013806 -0.009821 -0.014946
												CHANNELS 3 Xrotation Yrotation Zrotation
												End Site
												{
													OFFSET -0.007226 -0.006121 -0.011655
												}
											}
										}
									}
								}
							}
						}
					}
				}
			}
		}
	}
	JOINT pelvis.L
	{
		OFFSET 0.000000 0.000000 0.000000
		CHANNELS 6 Xposition Yposition Zposition Xrotation Yrotation Zrotation
		JOINT thigh.L
		{
			OFFSET 0.101675 0.001054 -0.000000
			CHANNELS 3 Xrotation Yrotation Zrotation
			JOINT shin.L
			{
				OFFSET 0.000000 -0.534800 0.041000
				CHANNELS 3 Xrotation Yrotation Zrotation
				JOINT foot.L
				{
					OFFSET 0.000000 -0.452000 -0.044800
					CHANNELS 3 Xrotation Yrotation Zrotation
					JOINT toe.L
					{
						OFFSET -0.000000 -0.068500 0.109600
						CHANNELS 3 Xrotation Yrotation Zrotation
						End Site
						{
							OFFSET -0.000000 0.000000 0.067200
						}
					}
				}
				JOINT heel.L
				{
					OFFSET 0.000000 -0.452000 -0.044800
					CHANNELS 3 Xrotation Yrotation Zrotation
					JOINT heel.02.L
					{
						OFFSET -0.038000 -0.085200 0.016200
						CHANNELS 6 Xposition Yposition Zposition Xrotation Yrotation Zrotation
						End Site
						{
							OFFSET 0.080000 -0.000000 0.000000
						}
					}
				}
			}
		}
	}
	JOINT pelvis.R
	{
		OFFSET 0.000000 0.000000 0.000000
		CHANNELS 6 Xposition Yposition Zposition Xrotation Yrotation Zrotation
		JOINT thigh.R
		{
			OFFSET -0.094325 0.001054 0.000000
			CHANNELS 3 Xrotation Yrotation Zrotation
			JOINT shin.R
			{
				OFFSET 0.000000 -0.534800 0.041000
				CHANNELS 3 Xrotation Yrotation Zrotation
				JOINT foot.R
				{
					OFFSET 0.000000 -0.452000 -0.044800
					CHANNELS 3 Xrotation Yrotation Zrotation
					JOINT toe.R
					{
						OFFSET -0.000000 -0.068500 0.109600
						CHANNELS 3 Xrotation Yrotation Zrotation
						End Site
						{
							OFFSET -0.000000 0.000000 0.067200
						}
					}
				}
				JOINT heel.R
				{
					OFFSET 0.000000 -0.452000 -0.044800
					CHANNELS 3 Xrotation Yrotation Zrotation
					JOINT heel.02.R
					{
						OFFSET 0.038000 -0.085200 0.016200
						CHANNELS 6 Xposition Yposition Zposition Xrotation Yrotation Zrotation
						End Site
						{
							OFFSET -0.080000 0.000000 -0.000000
						}
					}
				}
			}
		}
	}
}
MOTION
Frames: 4
Frame Time: 0.041667
-0.010927 0.222569 0.002260 -51.300909 5.862927 103.311672 -0.000001 0.000003 0.000000 -0.000000 0.000001 -0.000000 -0.000000 -0.000003 -0.000002 -0.000001 -0.000003 -0.000001 0.000924 0.155147 0.009274 -17.971046 0.063779 -10.935648 0.019937 0.078966 0.057518 -29.055734 1.898240 34.922416 0.177025 -0.020465 -0.095062 -16.785315 16.778013 -66.517320 330.059767 -17.167913 -389.113118 -0.000003 0.000000 0.000001 0.021770 -0.038291 0.012954 -0.000003 -0.000004 0.000001 -0.000001 0.000001 0.000001 0.000004 0.000003 0.000005 -0.000003 0.000003 0.000002 -0.009090 -0.002348 -0.024223 0.000001 -0.000002 0.000003 -0.000003 -0.000002 0.000005 -0.000000 -0.000001 -0.000004 0.032823 -0.025104 0.012281 -0.000002 -0.000002 0.000002 -0.000002 -0.000001 -0.000003 -0.000003 0.000002 -0.000000 -0.000005 -0.000002 0.000006 0.039230 -0.011402 0.008390 -0.000004 -0.000000 0.000006 -0.000001 -0.000000 -0.000000 -0.000000 0.000003 0.000008 0.000003 -0.000005 0.000005 0.043417 0.002450 0.002889 -0.000002 -0.000000 -0.000000 -0.000002 -0.000005 -0.000004 -0.000000 0.000004 -0.000001 -0.000002 -0.000001 -0.000001 -0.016662 0.078957 0.057696 -16.391867 4.322581 -30.164540 -0.176972 -0.020537 -0.095144 -41.488314 -11.078049 55.040168 -200.000957 -187.251398 -124.842430 -0.000001 0.000002 0.000002 -0.021773 -0.038278 0.012988 -0.000001 -0.000001 -0.000003 -0.000002 0.000002 0.000006 0.000006 0.000000 -0.000009 -0.000003 -0.000000 -0.000003 0.009114 -0.002381 -0.024212 0.000000 -0.000003 0.000002 -0.000001 -0.000005 0.000005 0.000001 -0.000005 -0.000001 -0.032828 -0.025095 0.012286 -0.000001 0.000002 0.000001 -0.000003 0.000000 -0.000001 -0.000000 -0.000000 -0.000001 -0.000003 0.000003 -0.000004 -0.039192 -0.011488 0.008390 -0.000001 -0.000000 0.000005 -0.000001 0.000003 0.000005 0.000002 -0.000001 -0.000002 0.000001 0.000003 0.000001 -0.043421 0.002443 0.002845 -0.000002 0.000000 0.000002 -0.000006 0.000007 0.000003 -0.000001 -0.000003 0.000002 -0.000000 0.000003 -0.000001 0.000000 0.000000 -0.000000 -2.034295 -0.775469 7.785614 20.995807 0.681629 7.994317 8.077109 -1.679903 17.213491 0.000000 -0.000003 -0.000002 -0.000000 0.000002 0.000000 0.000002 -0.000005 -0.000002 -0.038000 -0.085200 0.016200 -0.000001 0.000000 -0.000001 0.000000 0.000000 -0.000000 -2.016858 -0.772897 9.020034 22.673566 0.947779 13.761803 15.188818 -1.391033 14.181971 0.000000 0.000003 -0.000001 -0.000003 0.000003 0.000000 0.000007 0.000002 0.000002 0.038000 -0.085200 0.016200 -0.000000 0.000001 0.000002 
-0.011529 0.223417 0.001621 -57.698255 5.563908 105.023973 -0.000001 0.000001 0.000001 -0.000001 0.000002 -0.000001 0.000000 0.000002 0.000001 0.000001 0.000002 0.000002 0.000924 0.155148 0.009274 -19.736327 0.064012 -16.602383 0.019937 0.078966 0.057518 -33.533999 2.532298 35.393528 0.177025 -0.020465 -0.095062 -16.421984 16.885196 -66.169889 325.776063 -17.021286 -392.872262 -0.000003 -0.000001 -0.000004 0.021770 -0.038291 0.012954 -0.000003 -0.000000 -0.000002 0.000002 -0.000004 0.000006 -0.000000 -0.000001 0.000005 -0.000002 0.000000 0.000003 -0.009090 -0.002348 -0.024223 0.000003 -0.000003 0.000002 -0.000004 0.000000 0.000001 0.000002 0.000003 -0.000002 0.032823 -0.025104 0.012281 -0.000002 0.000002 0.000005 -0.000002 0.000003 -0.000003 -0.000005 0.000000 0.000001 -0.000001 0.000002 0.000004 0.039230 -0.011402 0.008390 -0.000004 0.000001 0.000004 0.000002 0.000000 -0.000000 0.000001 0.000005 0.000006 -0.000002 -0.000003 0.000005 0.043417 0.002450 0.002889 -0.000005 -0.000001 -0.000005 -0.000002 -0.000005 0.000001 -0.000004 0.000001 -0.000001 -0.000000 -0.000002 -0.000001 -0.016662 0.078957 0.057696 -19.551051 4.802674 -28.842680 -0.176972 -0.020537 -0.095144 -36.582971 -8.559522 52.060299 -211.347964 -186.384716 -122.547063 -0.000003 0.000000 0.000007 -0.021773 -0.038278 0.012988 -0.000004 -0.000002 -0.000002 0.000001 -0.000000 -0.000001 -0.000001 -0.000000 -0.000003 0.000003 0.000002 0.000005 0.009114 -0.002381 -0.024212 0.000002 -0.000005 -0.000000 -0.000001 -0.000000 -0.000003 0.000001 0.000001 -0.000008 -0.032828 -0.025095 0.012286 -0.000001 -0.000002 0.000002 -0.000000 0.000003 0.000001 -0.000003 -0.000001 -0.000001 -0.000001 -0.000002 -0.000003 -0.039192 -0.011488 0.008390 -0.000002 0.000001 0.000007 0.000004 0.000003 -0.000002 -0.000008 -0.000001 0.000002 -0.000002 -0.000001 -0.000002 -0.043421 0.002443 0.002845 -0.000002 0.000000 0.000000 -0.000003 0.000002 -0.000002 -0.000002 0.000001 -0.000003 0.000003 0.000002 -0.000002 0.000000 0.000000 -0.000000 -2.025479 -0.902801 9.214720 18.601368 0.765918 9.240560 3.328016 -1.449880 14.797192 0.000003 -0.000003 -0.000000 -0.000005 -0.000001 -0.000001 0.000002 -0.000003 0.000001 -0.038000 -0.085200 0.016200 0.000000 0.000002 0.000002 0.000000 0.000000 -0.000000 -2.012390 -0.900526 10.449117 21.465085 0.972145 14.006485 11.831585 -1.493405 15.250494 0.000002 0.000002 0.000001 -0.000001 0.000003 0.000000 0.000007 0.000002 0.000003 0.038000 -0.085200 0.016200 -0.000001 0.000001 0.000001 
-0.011211 0.224076 0.002075 -55.312375 5.552612 104.770539 -0.000001 0.000001 -0.000000 -0.000001 -0.000000 -0.000001 0.000002 -0.000002 0.000003 0.000000 -0.000002 0.000003 0.000924 0.155147 0.009274 -17.130494 0.053636 -16.192936 0.019937 0.078966 0.057518 -29.163385 1.640232 34.165767 0.177024 -0.020465 -0.095062 -16.513642 16.686010 -65.247609 328.903361 -18.477506 -387.868548 -0.000002 -0.000002 -0.000002 0.021770 -0.038291 0.012954 -0.000003 -0.000002 -0.000004 -0.000003 -0.000001 -0.000000 -0.000001 -0.000000 0.000007 -0.000005 0.000001 -0.000000 -0.009090 -0.002348 -0.024224 -0.000000 -0.000001 -0.000001 0.000006 0.000002 0.000005 -0.000000 0.000000 0.000003 0.032823 -0.025104 0.012281 -0.000004 -0.000002 -0.000001 0.000003 0.000007 0.000002 -0.000000 0.000006 0.000000 0.000002 0.000004 0.000004 0.039230 -0.011402 0.008390 -0.000004 -0.000002 0.000003 0.000002 0.000003 0.000001 0.000001 0.000005 0.000001 -0.000002 0.000000 0.000003 0.043417 0.002450 0.002889 -0.000006 -0.000002 -0.000005 -0.000001 -0.000005 -0.000005 -0.000001 0.000001 0.000003 -0.000001 -0.000003 -0.000002 -0.016662 0.078957 0.057696 -16.992981 4.393272 -29.817000 -0.176972 -0.020537 -0.095144 -39.439066 -8.866870 52.387565 -205.409484 -187.054894 -123.620482 -0.000004 -0.000001 0.000002 -0.021773 -0.038278 0.012988 0.000000 0.000001 -0.000002 -0.000001 0.000001 0.000000 0.000003 0.000001 -0.000004 -0.000002 0.000002 0.000001 0.009114 -0.002381 -0.024212 -0.000000 0.000003 0.000001 -0.000001 0.000001 -0.000001 0.000000 -0.000001 -0.000001 -0.032828 -0.025095 0.012286 -0.000001 -0.000000 -0.000001 -0.000001 0.000002 0.000001 0.000001 -0.000001 -0.000001 -0.000003 0.000006 -0.000003 -0.039192 -0.011488 0.008390 -0.000001 0.000003 0.000001 -0.000008 0.000003 -0.000007 0.000005 -0.000005 -0.000004 -0.000001 0.000001 -0.000006 -0.043421 0.002443 0.002845 -0.000003 -0.000001 -0.000001 -0.000006 0.000004 -0.000002 -0.000002 -0.000001 -0.000000 -0.000003 0.000000 -0.000001 -0.000000 0.000000 0.000000 -2.028240 -0.862539 8.763624 22.170977 0.740915 8.709919 1.694057 -1.288610 13.119528 -0.000002 -0.000002 0.000004 -0.000000 0.000003 0.000000 0.000000 0.000001 0.000003 -0.038000 -0.085200 0.016200 0.000001 -0.000003 -0.000001 -0.000000 0.000000 0.000000 -2.013776 -0.860153 9.998023 24.372261 0.890104 13.105174 11.884351 -1.366466 13.926287 -0.000005 0.000001 0.000001 0.000001 0.000001 0.000000 0.000007 0.000000 0.000001 0.038000 -0.085200 0.016200 0.000005 -0.000000 0.000001 
-0.011316 0.223948 0.002539 -53.568194 6.256364 103.949967 0.000001 -0.000003 0.000000 0.000000 -0.000000 0.000001 0.000000 0.000000 0.000000 0.000001 -0.000000 -0.000001 0.000924 0.155148 0.009274 -15.963971 0.049625 -15.795934 0.019937 0.078966 0.057518 -24.636643 1.103658 33.683150 0.177024 -0.020465 -0.095062 -17.047778 16.375706 -64.533861 328.926310 -20.761147 -384.306877 -0.000000 0.000004 0.000000 0.021770 -0.038291 0.012954 0.000001 0.000002 -0.000002 -0.000003 -0.000000 0.000001 0.000003 -0.000001 -0.000000 -0.000000 0.000000 0.000003 -0.009090 -0.002348 -0.024224 0.000001 0.000003 0.000005 0.000001 -0.000001 -0.000001 -0.000001 -0.000001 0.000001 0.032823 -0.025104 0.012281 -0.000002 -0.000000 0.000004 -0.000002 -0.000000 -0.000009 -0.000001 0.000003 0.000000 0.000001 0.000000 -0.000004 0.039230 -0.011402 0.008390 -0.000001 -0.000000 0.000008 0.000002 0.000005 0.000003 0.000002 0.000003 -0.000002 0.000003 -0.000003 0.000002 0.043417 0.002450 0.002889 0.000000 0.000002 -0.000000 -0.000004 -0.000010 0.000000 -0.000007 0.000003 0.000001 -0.000004 0.000000 0.000005 -0.016662 0.078956 0.057696 -14.545731 3.729596 -29.745672 -0.176972 -0.020537 -0.095144 -40.524650 -8.214921 50.941986 -208.983844 -185.907818 -120.242530 -0.000001 -0.000000 -0.000001 -0.021773 -0.038278 0.012988 -0.000003 -0.000002 -0.000002 0.000004 0.000003 0.000001 -0.000000 0.000003 -0.000002 -0.000006 -0.000005 -0.000000 0.009114 -0.002381 -0.024211 0.000004 -0.000004 0.000000 0.000002 -0.000000 -0.000003 -0.000001 -0.000001 0.000001 -0.032828 -0.025095 0.012286 -0.000000 -0.000000 -0.000001 -0.000001 -0.000002 -0.000003 0.000002 0.000000 -0.000000 -0.000002 0.000003 -0.000002 -0.039192 -0.011488 0.008390 -0.000004 -0.000000 -0.000000 -0.000005 0.000003 0.000004 -0.000001 0.000004 -0.000002 -0.000001 -0.000002 -0.000005 -0.043421 0.002443 0.002844 -0.000003 -0.000002 0.000002 0.000000 0.000006 -0.000003 -0.000002 0.000003 0.000002 0.000001 0.000003 0.000001 -0.000000 0.000000 0.000000 -2.046017 -0.755523 7.544672 22.444797 0.769706 9.074962 1.636495 -1.422163 14.507861 0.000000 0.000001 -0.000000 -0.000000 0.000004 0.000003 0.000000 -0.000001 -0.000001 -0.038000 -0.085200 0.016200 0.000004 0.000003 0.000001 -0.000000 0.000000 0.000000 -2.027749 -0.752913 8.779097 23.338227 0.859811 12.626239 12.280204 -1.412804 14.408699 -0.000002 -0.000002 -0.000000 0.000003 -0.000004 -0.000002 0.000009 -0.000001 -0.000000 0.038000 -0.085200 0.016200 -0.000001 -0.000003 -0.000001 
